<svg width="30" height="35" viewBox="0 0 30 35" fill="none" xmlns="http://www.w3.org/2000/svg">
<path d="M9.64286 9.84375V13.125H20.3571V9.84375C20.3571 6.82227 17.9598 4.375 15 4.375C12.0402 4.375 9.64286 6.82227 9.64286 9.84375ZM5.35714 13.125V9.84375C5.35714 4.40918 9.67634 0 15 0C20.3237 0 24.6429 4.40918 24.6429 9.84375V13.125H25.7143C28.0781 13.125 30 15.0869 30 17.5V30.625C30 33.0381 28.0781 35 25.7143 35H4.28571C1.92188 35 0 33.0381 0 30.625V17.5C0 15.0869 1.92188 13.125 4.28571 13.125H5.35714Z" fill="#404040"/>
</svg>
